<svg width="84" height="75" viewBox="0 0 84 75" fill="none" xmlns="http://www.w3.org/2000/svg">
<path d="M33.4389 9.99519C37.2961 3.34308 46.9392 3.34307 50.7964 9.99518L75.8684 53.2339C79.7257 59.886 74.9041 68.2011 67.1897 68.2011H17.0456C9.33115 68.2011 4.50961 59.886 8.36684 53.2339L33.4389 9.99519Z" fill="#EEBC70"/>
<path d="M79.7337 50.9609L54.8809 8.73538C49.2028 -0.9118 35.0325 -0.91179 29.3544 8.73539L4.50155 50.9609C-1.2106 60.666 5.95929 72.7105 17.2648 72.7105H66.9705C78.276 72.7105 85.4459 60.666 79.7337 50.9609ZM34.8074 11.8812C38.0509 6.37044 46.1844 6.37044 49.4278 11.8812L74.2807 54.1067C77.4901 59.5595 73.508 66.4624 66.9705 66.4624H17.2648C10.7273 66.4624 6.74522 59.5595 9.9546 54.1067L34.8074 11.8812Z" fill="#FCD76E" stroke="#FFE496" stroke-width="3"/>
<path d="M44.0969 49.7454H38.2393L37.3166 28.0774H45.0195L44.0969 49.7454ZM37.1021 56.4962C37.1021 55.4218 37.4811 54.5435 38.2393 53.8612C39.0117 53.1643 39.9701 52.8159 41.1144 52.8159C42.2588 52.8159 43.21 53.1643 43.9682 53.8612C44.7406 54.5435 45.1268 55.4218 45.1268 56.4962C45.1268 57.5705 44.7406 58.4561 43.9682 59.153C43.21 59.8353 42.2588 60.1765 41.1144 60.1765C39.9701 60.1765 39.0117 59.8353 38.2393 59.153C37.4811 58.4561 37.1021 57.5705 37.1021 56.4962Z" fill="black"/>
</svg>
