<svg width="48" height="43" viewBox="0 0 48 43" fill="none" xmlns="http://www.w3.org/2000/svg">
<path d="M18.5616 4.1579C20.9787 -0.0526305 27.0213 -0.0526326 29.4384 4.15789L45.1493 31.5263C47.5664 35.7368 44.545 41 39.7109 41H8.28909C3.45496 41 0.433627 35.7368 2.85069 31.5263L18.5616 4.1579Z" fill="#EEBC70"/>
<path fill-rule="evenodd" clip-rule="evenodd" d="M31.2222 4.09524L46.8703 30.7143C50.0801 36.1746 46.0678 43 39.6481 43H8.35192C1.93219 43 -2.08015 36.1746 1.12972 30.7143L16.7778 4.09524C19.9877 -1.36508 28.0123 -1.36508 31.2222 4.09524ZM29.4166 5.11905C27.0092 1.02381 20.9908 1.02381 18.5834 5.11905L2.93527 31.7381C0.527869 35.8333 3.53712 40.9524 8.35192 40.9524H39.6481C44.4629 40.9524 47.4721 35.8333 45.0647 31.7381L29.4166 5.11905Z" fill="#373737"/>
<path d="M25.3583 29.5007H21.7086L21.1337 16H25.9332L25.3583 29.5007ZM21 33.7069C21 33.0375 21.2362 32.4903 21.7086 32.0651C22.1898 31.6309 22.787 31.4138 23.5 31.4138C24.213 31.4138 24.8057 31.6309 25.2781 32.0651C25.7594 32.4903 26 33.0375 26 33.7069C26 34.3763 25.7594 34.9281 25.2781 35.3623C24.8057 35.7874 24.213 36 23.5 36C22.787 36 22.1898 35.7874 21.7086 35.3623C21.2362 34.9281 21 34.3763 21 33.7069Z" fill="black"/>
</svg>
