<svg width="84" height="68" viewBox="0 0 84 68" fill="none" xmlns="http://www.w3.org/2000/svg">
<circle cx="67.059" cy="51.5817" r="16.4184" fill="#EEBC70"/>
<path fill-rule="evenodd" clip-rule="evenodd" d="M44.2012 5.2714L67.6525 44.8074C71.8216 51.836 66.6102 60.6217 58.272 60.6217H11.3693C3.0311 60.6217 -2.18031 51.836 1.98882 44.8074L25.4401 5.2714C29.6093 -1.75721 40.0321 -1.75722 44.2012 5.2714ZM41.0743 7.02855C38.2949 2.34281 31.3464 2.34281 28.567 7.02855L5.11566 46.5645C2.33624 51.2502 5.81051 57.1074 11.3693 57.1074H58.272C63.8308 57.1074 67.3051 51.2502 64.5257 46.5645L41.0743 7.02855Z" fill="#344059"/>
<path d="M37.7849 42.2767H31.9624L31.0453 20.7389H38.7019L37.7849 42.2767ZM30.832 48.987C30.832 47.9191 31.2088 47.046 31.9624 46.3678C32.7302 45.6751 33.6828 45.3288 34.8203 45.3288C35.9578 45.3288 36.9033 45.6751 37.6569 46.3678C38.4247 47.046 38.8086 47.9191 38.8086 48.987C38.8086 50.0548 38.4247 50.9351 37.6569 51.6278C36.9033 52.306 35.9578 52.6451 34.8203 52.6451C33.6828 52.6451 32.7302 52.306 31.9624 51.6278C31.2088 50.9351 30.832 50.0548 30.832 48.987Z" fill="#344059"/>
</svg>
