<svg width="84" height="84" viewBox="0 0 84 84" fill="none" xmlns="http://www.w3.org/2000/svg">
<path d="M42.3673 83.7205C64.8297 83.7205 83.0391 65.5111 83.0391 43.0487C83.0391 20.5862 64.8297 2.37683 42.3673 2.37683C19.9048 2.37683 1.69543 20.5862 1.69543 43.0487C1.69543 65.5111 19.9048 83.7205 42.3673 83.7205Z" fill="white"/>
<g opacity="0.07">
<g opacity="0.07">
<g opacity="0.07">
<path opacity="0.07" d="M65.5482 19.5647C70.8814 25.8672 73.6 33.9721 73.1458 42.2158C72.6917 50.4595 69.0993 58.2168 63.106 63.8953C57.1127 69.5739 49.1732 72.7431 40.917 72.7523C32.6607 72.7615 24.7141 69.6101 18.7081 63.945C21.5484 67.2994 25.0432 70.0391 28.9786 71.9966C32.9141 73.954 37.2076 75.088 41.5963 75.3291C45.9851 75.5703 50.3769 74.9135 54.5032 73.3991C58.6294 71.8846 62.4033 69.5443 65.594 66.5212C68.7847 63.4982 71.3252 59.856 73.0599 55.8174C74.7947 51.7788 75.6872 47.4288 75.6831 43.0334C75.679 38.638 74.7781 34.2897 73.0358 30.2544C71.2934 26.2191 68.7462 22.5817 65.5497 19.5647H65.5482Z" fill="#408BC5"/>
</g>
</g>
</g>
<path d="M42.5017 18.3668L55.4336 40.7655H29.5698L42.5017 18.3668Z" fill="#FF6F6F"/>
<path d="M42.5116 65.7249L29.5797 40.6063L55.4435 40.6063L42.5116 65.7249Z" fill="#AAC9DF"/>
<circle cx="42" cy="42" r="37.5" stroke="#4C7DA2" stroke-width="9"/>
</svg>
