<svg width="84" height="84" viewBox="0 0 84 84" fill="none" xmlns="http://www.w3.org/2000/svg">
<path d="M0 0H84V74C84 79.5228 79.5229 84 74 84H10C4.47715 84 0 79.5229 0 74V0Z" fill="#4C7DA2"/>
<path d="M62.4611 42.94L43.5611 21.8196C42.7652 20.9283 41.2364 20.9283 40.4405 21.8196L21.5405 42.94C21.2685 43.2433 21.0899 43.6196 21.0265 44.023C20.9632 44.4265 21.0177 44.8397 21.1835 45.2126C21.5195 45.975 22.2713 46.465 23.1008 46.465H27.3008V61.2494C27.3008 61.8095 27.5221 62.3467 27.9159 62.7428C28.3097 63.1389 28.8439 63.3614 29.4008 63.3614H35.7008C36.2578 63.3614 36.7919 63.1389 37.1857 62.7428C37.5796 62.3467 37.8008 61.8095 37.8008 61.2494V52.8012H46.2008V61.2494C46.2008 61.8095 46.4221 62.3467 46.8159 62.7428C47.2097 63.1389 47.7439 63.3614 48.3008 63.3614H54.6008C55.1578 63.3614 55.6919 63.1389 56.0857 62.7428C56.4796 62.3467 56.7008 61.8095 56.7008 61.2494V46.465H60.9008C61.3075 46.4668 61.7059 46.3495 62.0475 46.1274C62.389 45.9054 62.659 45.5882 62.8244 45.2145C62.9898 44.8408 63.0435 44.4268 62.979 44.0229C62.9145 43.6191 62.7346 43.2428 62.4611 42.94Z" fill="white"/>
</svg>
