<svg width="84" height="84" viewBox="0 0 84 84" fill="none" xmlns="http://www.w3.org/2000/svg">
<path d="M0 10C0 4.47715 4.47715 0 10 0H74C79.5228 0 84 4.47715 84 10V74C84 79.5228 79.5229 84 74 84H10C4.47715 84 0 79.5229 0 74V10Z" fill="#4C7DA2"/>
<path d="M42.7508 20.9693C42.9814 20.8466 43.2386 20.7823 43.4998 20.7823C43.7611 20.7823 44.0183 20.8466 44.2489 20.9693L68.1552 33.7193C68.4097 33.8554 68.6226 34.058 68.771 34.3056C68.9195 34.5531 68.9978 34.8364 68.9978 35.125C68.9978 35.4137 68.9195 35.6969 68.771 35.9445C68.6226 36.1921 68.4097 36.3947 68.1552 36.5307L44.2489 49.2807C44.0183 49.4035 43.7611 49.4677 43.4998 49.4677C43.2386 49.4677 42.9814 49.4035 42.7508 49.2807L18.8445 36.5307C18.5899 36.3947 18.3771 36.1921 18.2286 35.9445C18.0802 35.6969 18.0018 35.4137 18.0018 35.125C18.0018 34.8364 18.0802 34.5531 18.2286 34.3056C18.3771 34.058 18.5899 33.8554 18.8445 33.7193L42.7508 20.9693Z" fill="white"/>
<path d="M24.7733 43.3074L18.8445 46.4694C18.5899 46.6054 18.3771 46.808 18.2286 47.0556C18.0802 47.3032 18.0018 47.5864 18.0018 47.8751C18.0018 48.1637 18.0802 48.4469 18.2286 48.6945C18.3771 48.9421 18.5899 49.1447 18.8445 49.2807L42.7508 62.0307C42.9814 62.1535 43.2386 62.2177 43.4998 62.2177C43.7611 62.2177 44.0183 62.1535 44.2489 62.0307L68.1552 49.2807C68.4097 49.1447 68.6226 48.9421 68.771 48.6945C68.9195 48.4469 68.9978 48.1637 68.9978 47.8751C68.9978 47.5864 68.9195 47.3032 68.771 47.0556C68.6226 46.808 68.4097 46.6054 68.1552 46.4694L62.2264 43.3074L45.747 52.0921C45.0553 52.4605 44.2836 52.6531 43.4998 52.6531C42.7161 52.6531 41.9444 52.4605 41.2527 52.0921L24.7733 43.3074Z" fill="white"/>
</svg>
