<svg width="39" height="39" viewBox="0 0 39 39" fill="none" xmlns="http://www.w3.org/2000/svg">
<path d="M18.9272 3.79877C19.1035 3.70487 19.3002 3.65576 19.5 3.65576C19.6998 3.65576 19.8965 3.70487 20.0729 3.79877L38.3556 13.5496C38.5503 13.6536 38.7131 13.8085 38.8266 13.9979C38.9401 14.1872 39.0001 14.4038 39.0001 14.6246C39.0001 14.8453 38.9401 15.0619 38.8266 15.2513C38.7131 15.4406 38.5503 15.5956 38.3556 15.6996L20.0729 25.4504C19.8965 25.5443 19.6998 25.5934 19.5 25.5934C19.3002 25.5934 19.1035 25.5443 18.9272 25.4504L0.644466 15.6996C0.449762 15.5956 0.286965 15.4406 0.173459 15.2513C0.0599536 15.0619 0 14.8453 0 14.6246C0 14.4038 0.0599536 14.1872 0.173459 13.9979C0.286965 13.8085 0.449762 13.6536 0.644466 13.5496L18.9272 3.79877Z" fill="#4C7DA2"/>
<path d="M5.17858 20.8821L0.644466 23.3003C0.449762 23.4043 0.286965 23.5593 0.173459 23.7486C0.0599536 23.9379 0 24.1545 0 24.3753C0 24.5961 0.0599536 24.8127 0.173459 25.002C0.286965 25.1913 0.449762 25.3463 0.644466 25.4503L18.9272 35.2011C19.1035 35.295 19.3002 35.3441 19.5 35.3441C19.6998 35.3441 19.8965 35.295 20.0729 35.2011L38.3556 25.4503C38.5503 25.3463 38.7131 25.1913 38.8266 25.002C38.9401 24.8127 39.0001 24.5961 39.0001 24.3753C39.0001 24.1545 38.9401 23.9379 38.8266 23.7486C38.7131 23.5593 38.5503 23.4043 38.3556 23.3003L33.8215 20.8821L21.2186 27.6004C20.6896 27.8821 20.0994 28.0294 19.5 28.0294C18.9007 28.0294 18.3105 27.8821 17.7815 27.6004L5.17858 20.8821Z" fill="#4C7DA2"/>
</svg>
