<svg width="87" height="86" viewBox="0 0 87 86" fill="none" xmlns="http://www.w3.org/2000/svg">
<g clip-path="url(#clip0)">
<path d="M40.8932 69.8903C25.3796 47.2631 22.5 44.9408 22.5 36.625C22.5 25.2341 31.6781 16 43 16C54.3219 16 63.5 25.2341 63.5 36.625C63.5 44.9408 60.6204 47.2631 45.1068 69.8903C44.0887 71.37 41.9112 71.3699 40.8932 69.8903ZM43 45.2188C47.7175 45.2188 51.5417 41.3712 51.5417 36.625C51.5417 31.8788 47.7175 28.0312 43 28.0312C38.2825 28.0312 34.4583 31.8788 34.4583 36.625C34.4583 41.3712 38.2825 45.2188 43 45.2188Z" fill="#344059"/>
</g>
<defs>
<clipPath id="clip0">
<rect width="41" height="55" fill="white" transform="translate(22.5 16)"/>
</clipPath>
</defs>
</svg>
