<svg width="122" height="122" viewBox="0 0 122 122" fill="none" xmlns="http://www.w3.org/2000/svg">
<circle cx="61" cy="64" r="54" fill="#FFC4C4" fill-opacity="0.4"/>
<circle cx="61" cy="64" r="46" fill="#FD9494" fill-opacity="0.4"/>
<path d="M34.9674 93.7222C34.4172 93.1956 34.2275 92.3894 34.4936 91.6685L57.8105 28.4923C58.0839 27.7518 58.7824 27.2536 59.5717 27.2362C60.3609 27.219 61.0804 27.6859 61.386 28.4139L87.4493 90.5073C87.7608 91.2496 87.5768 92.1074 86.9882 92.6566C86.3997 93.2057 85.5311 93.3299 84.8121 92.9678L67.2391 84.1148C63.1738 82.0668 58.3756 82.172 54.4042 84.3962L37.2359 94.0109C36.5335 94.4044 35.6604 94.3183 35.0483 93.7954C35.0206 93.7718 34.9936 93.7472 34.9674 93.7222Z" fill="#E87777"/>
<path d="M87.59 90.2744L61.8578 28.9696C61.556 28.2508 60.8456 27.7899 60.0664 27.8068L61.2659 82.5202C63.4421 82.4725 65.6299 82.952 67.6366 83.963L84.9864 92.7036C85.6961 93.0611 86.5537 92.9385 87.1349 92.3963C87.7161 91.854 87.8976 91.0073 87.59 90.2744Z" fill="#D53838"/>
</svg>
