<svg width="84" height="84" viewBox="0 0 84 84" fill="none" xmlns="http://www.w3.org/2000/svg">
<path d="M0 10C0 4.47715 4.47715 0 10 0H74C79.5228 0 84 4.47715 84 10V74C84 79.5228 79.5229 84 74 84H10C4.47715 84 0 79.5229 0 74V10Z" fill="#4C7DA2"/>
<path d="M43.5279 51.1529C48.7294 51.1529 52.9461 46.9121 52.9461 41.6807C52.9461 36.4494 48.7294 32.2085 43.5279 32.2085C38.3264 32.2085 34.1097 36.4494 34.1097 41.6807C34.1097 46.9121 38.3264 51.1529 43.5279 51.1529Z" fill="white"/>
<path d="M45.8814 22.8995V18H41.1724V22.8995C37.0291 23.4316 33.1786 25.3319 30.2251 28.3024C27.2715 31.2729 25.382 35.1454 24.853 39.3125H19.9814V44.0486H24.853C25.3812 48.216 27.2705 52.089 30.2242 55.0596C33.1779 58.0302 37.0288 59.9303 41.1724 60.4616V65.3611H45.8814V60.4616C50.0252 59.9307 53.8763 58.0307 56.8301 55.06C59.7838 52.0893 61.6729 48.2161 62.2008 44.0486H67.0724V39.3125H62.2008C61.6726 35.1451 59.7833 31.2721 56.8296 28.3015C53.8759 25.3309 50.025 23.4308 45.8814 22.8995ZM43.5269 55.8889C35.7357 55.8889 29.3996 49.5164 29.3996 41.6805C29.3996 33.8447 35.7357 27.4722 43.5269 27.4722C51.3181 27.4722 57.6542 33.8447 57.6542 41.6805C57.6542 49.5164 51.3181 55.8889 43.5269 55.8889Z" fill="white"/>
</svg>
