<svg width="86" height="86" viewBox="0 0 86 86" fill="none" xmlns="http://www.w3.org/2000/svg">
<circle cx="32.0833" cy="22.1875" r="16.1875" fill="#EEBC70"/>
<g clip-path="url(#clip0)">
<path d="M36.3951 20.7423C37.1809 20.7423 37.9345 21.0544 38.4902 21.6101C39.0458 22.1657 39.358 22.9194 39.358 23.7052V48.3959C39.358 48.9198 39.5661 49.4222 39.9365 49.7926C40.3069 50.1631 40.8094 50.3712 41.3332 50.3712C41.8571 50.3712 42.3595 50.1631 42.7299 49.7926C43.1004 49.4222 43.3085 48.9198 43.3085 48.3959V38.3892L43.6482 38.3734C44.9005 38.326 46.1647 38.3418 46.8719 38.4801C47.4012 38.5868 48.0333 38.8594 48.6417 39.1991C48.9459 39.365 49.2343 39.7798 49.2343 40.4396V48.3959C49.2343 48.9198 49.4424 49.4222 49.8128 49.7926C50.1832 50.1631 50.6856 50.3712 51.2095 50.3712C51.7334 50.3712 52.2358 50.1631 52.6062 49.7926C52.9767 49.4222 53.1848 48.9198 53.1848 48.3959V42.2134L53.6035 42.1738C54.8519 42.079 55.9106 42.1343 56.4005 42.3319C56.8667 42.5136 57.5857 43.1496 58.3205 44.0306C58.6404 44.4098 58.913 44.7812 59.1106 45.0538V50.3712C59.1106 50.8951 59.3187 51.3975 59.6891 51.7679C60.0595 52.1383 60.562 52.3464 61.0858 52.3464C61.6097 52.3464 62.1121 52.1383 62.4825 51.7679C62.853 51.3975 63.0611 50.8951 63.0611 50.3712V46.4207H64.4122C64.9643 46.4206 65.5103 46.5364 66.0149 46.7604C66.5195 46.9843 66.9716 47.3116 67.342 47.7211C67.7123 48.1305 67.9928 48.6131 68.1652 49.1376C68.3376 49.6621 68.3981 50.2169 68.3429 50.7662L67.2723 61.4919C67.1341 62.8703 66.7074 64.2041 66.02 65.4069L60.509 75.054C60.3364 75.3564 60.0868 75.6077 59.7857 75.7825C59.4846 75.9573 59.1427 76.0494 58.7945 76.0496H33.8983C33.5318 76.0495 33.1725 75.9476 32.8607 75.755C32.5488 75.5624 32.2967 75.2869 32.1325 74.9592L27.2654 65.2212L17.3417 48.6883C17.0868 48.2608 16.9967 47.7549 17.0883 47.2657C17.18 46.7765 17.4472 46.3377 17.8397 46.0315C18.2321 45.7254 18.7229 45.5732 19.2197 45.6034C19.7165 45.6335 20.1852 45.8441 20.5377 46.1955L30.0584 55.7162C30.3345 55.993 30.6864 56.1816 31.0696 56.2582C31.4529 56.3348 31.8503 56.296 32.2115 56.1467C32.5727 55.9974 32.8815 55.7443 33.0988 55.4195C33.3161 55.0946 33.4321 54.7125 33.4322 54.3217V23.7052C33.4322 22.9194 33.7443 22.1657 34.3 21.6101C34.8556 21.0544 35.6093 20.7423 36.3951 20.7423ZM43.3085 34.4348V23.7052C43.3085 21.8716 42.5801 20.1132 41.2836 18.8166C39.9871 17.5201 38.2286 16.7917 36.3951 16.7917C34.5615 16.7917 32.8031 17.5201 31.5066 18.8166C30.21 20.1132 29.4817 21.8716 29.4817 23.7052V49.5534L23.3307 43.4025C22.2958 42.3733 20.9209 41.7571 19.4639 41.6696C18.007 41.5822 16.5682 42.0294 15.4176 42.9274C14.267 43.8254 13.4836 45.1124 13.2146 46.5469C12.9455 47.9815 13.2092 49.4649 13.9561 50.7188L23.7969 67.1253L28.5967 76.7251C29.0891 77.7095 29.8459 78.5373 30.7823 79.1157C31.7187 79.6942 32.7977 80.0004 33.8983 80.0001H58.7945C59.839 79.9997 60.8649 79.7233 61.7682 79.1989C62.6714 78.6744 63.42 77.9205 63.9381 77.0135L69.4491 67.3703C70.4125 65.6846 71.0102 63.8149 71.2031 61.883L72.2737 51.1573C72.3835 50.059 72.262 48.9498 71.9169 47.9012C71.5718 46.8527 71.0109 45.8881 70.2702 45.0696C69.5295 44.2512 68.6256 43.597 67.6166 43.1493C66.6076 42.7015 65.516 42.4702 64.4122 42.4701H62.1169C61.8703 42.1357 61.6134 41.809 61.3466 41.4904C60.592 40.5857 59.3318 39.2465 57.8701 38.6618C56.4321 38.0851 54.528 38.1404 53.2954 38.2352L52.7739 38.2826C52.3533 37.206 51.5712 36.3093 50.5616 35.7463C49.6528 35.2222 48.6698 34.8386 47.6461 34.6086C46.4215 34.3637 44.7267 34.3795 43.4981 34.4269L43.3085 34.4348Z" fill="#344059"/>
</g>
<defs>
<clipPath id="clip0">
<rect width="63.2083" height="63.2083" fill="white" transform="translate(9.72913 16.7917)"/>
</clipPath>
</defs>
</svg>
