<svg width="30" height="30" viewBox="0 0 30 30" fill="none" xmlns="http://www.w3.org/2000/svg">
<path fill-rule="evenodd" clip-rule="evenodd" d="M12.5 5H25C25.3315 5 25.6495 5.1317 25.8839 5.36612C26.1183 5.60054 26.25 5.91848 26.25 6.25C26.25 6.58152 26.1183 6.89946 25.8839 7.13388C25.6495 7.3683 25.3315 7.5 25 7.5H12.5C12.1685 7.5 11.8505 7.3683 11.6161 7.13388C11.3817 6.89946 11.25 6.58152 11.25 6.25C11.25 5.91848 11.3817 5.60054 11.6161 5.36612C11.8505 5.1317 12.1685 5 12.5 5ZM12.5 13.75H25C25.3315 13.75 25.6495 13.8817 25.8839 14.1161C26.1183 14.3505 26.25 14.6685 26.25 15C26.25 15.3315 26.1183 15.6495 25.8839 15.8839C25.6495 16.1183 25.3315 16.25 25 16.25H12.5C12.1685 16.25 11.8505 16.1183 11.6161 15.8839C11.3817 15.6495 11.25 15.3315 11.25 15C11.25 14.6685 11.3817 14.3505 11.6161 14.1161C11.8505 13.8817 12.1685 13.75 12.5 13.75ZM12.5 22.5H25C25.3315 22.5 25.6495 22.6317 25.8839 22.8661C26.1183 23.1005 26.25 23.4185 26.25 23.75C26.25 24.0815 26.1183 24.3995 25.8839 24.6339C25.6495 24.8683 25.3315 25 25 25H12.5C12.1685 25 11.8505 24.8683 11.6161 24.6339C11.3817 24.3995 11.25 24.0815 11.25 23.75C11.25 23.4185 11.3817 23.1005 11.6161 22.8661C11.8505 22.6317 12.1685 22.5 12.5 22.5ZM6.25 8.75C5.58696 8.75 4.95107 8.48661 4.48223 8.01777C4.01339 7.54893 3.75 6.91304 3.75 6.25C3.75 5.58696 4.01339 4.95107 4.48223 4.48223C4.95107 4.01339 5.58696 3.75 6.25 3.75C6.91304 3.75 7.54893 4.01339 8.01777 4.48223C8.48661 4.95107 8.75 5.58696 8.75 6.25C8.75 6.91304 8.48661 7.54893 8.01777 8.01777C7.54893 8.48661 6.91304 8.75 6.25 8.75ZM6.25 17.5C5.58696 17.5 4.95107 17.2366 4.48223 16.7678C4.01339 16.2989 3.75 15.663 3.75 15C3.75 14.337 4.01339 13.7011 4.48223 13.2322C4.95107 12.7634 5.58696 12.5 6.25 12.5C6.91304 12.5 7.54893 12.7634 8.01777 13.2322C8.48661 13.7011 8.75 14.337 8.75 15C8.75 15.663 8.48661 16.2989 8.01777 16.7678C7.54893 17.2366 6.91304 17.5 6.25 17.5ZM6.25 26.25C5.58696 26.25 4.95107 25.9866 4.48223 25.5178C4.01339 25.0489 3.75 24.413 3.75 23.75C3.75 23.087 4.01339 22.4511 4.48223 21.9822C4.95107 21.5134 5.58696 21.25 6.25 21.25C6.91304 21.25 7.54893 21.5134 8.01777 21.9822C8.48661 22.4511 8.75 23.087 8.75 23.75C8.75 24.413 8.48661 25.0489 8.01777 25.5178C7.54893 25.9866 6.91304 26.25 6.25 26.25Z" fill="#344059"/>
</svg>
