<svg width="30" height="30" viewBox="0 0 30 30" fill="none" xmlns="http://www.w3.org/2000/svg">
<path d="M26.5711 13.7025C27.1636 14.4775 27.1636 15.5238 26.5711 16.2975C24.7049 18.7338 20.2274 23.75 14.9999 23.75C9.77239 23.75 5.29489 18.7338 3.42864 16.2975C3.14037 15.9264 2.98389 15.4699 2.98389 15C2.98389 14.5301 3.14037 14.0736 3.42864 13.7025C5.29489 11.2662 9.77239 6.25 14.9999 6.25C20.2274 6.25 24.7049 11.2662 26.5711 13.7025V13.7025Z" stroke="#344059" stroke-width="2.5" stroke-linecap="round" stroke-linejoin="round"/>
<path d="M15 18.75C17.0711 18.75 18.75 17.0711 18.75 15C18.75 12.9289 17.0711 11.25 15 11.25C12.9289 11.25 11.25 12.9289 11.25 15C11.25 17.0711 12.9289 18.75 15 18.75Z" stroke="#344059" stroke-width="2.5" stroke-linecap="round" stroke-linejoin="round"/>
</svg>
