<svg width="42" height="30" viewBox="0 0 42 30" fill="none" xmlns="http://www.w3.org/2000/svg">
<path d="M20.5 20C23.2614 20 25.5 17.7614 25.5 15C25.5 12.2386 23.2614 10 20.5 10C17.7386 10 15.5 12.2386 15.5 15C15.5 17.7614 17.7386 20 20.5 20Z" fill="#344059"/>
<path d="M21.75 5.08625V2.5H19.25V5.08625C17.0504 5.3671 15.0062 6.37021 13.4382 7.93821C11.8702 9.50621 10.8671 11.5504 10.5862 13.75H8V16.25H10.5862C10.8667 18.4498 11.8697 20.4942 13.4377 22.0623C15.0058 23.6303 17.0502 24.6333 19.25 24.9137V27.5H21.75V24.9137C23.9499 24.6335 25.9944 23.6306 27.5625 22.0625C29.1306 20.4944 30.1335 18.4499 30.4137 16.25H33V13.75H30.4137C30.1333 11.5502 29.1303 9.50582 27.5623 7.93775C25.9942 6.36967 23.9498 5.36669 21.75 5.08625ZM20.5 22.5C16.3638 22.5 13 19.1362 13 15C13 10.8638 16.3638 7.5 20.5 7.5C24.6362 7.5 28 10.8638 28 15C28 19.1362 24.6362 22.5 20.5 22.5Z" fill="#344059"/>
</svg>
