<svg width="171" height="171" viewBox="0 0 171 171" fill="none" xmlns="http://www.w3.org/2000/svg">
<g filter="url(#filter0_d)">
<g filter="url(#filter1_d)">
<rect x="24" y="24" width="123" height="123" rx="10" fill="#EAAC50"/>
</g>
<path fill-rule="evenodd" clip-rule="evenodd" d="M92.2913 41.741L113.315 78.1555C117.053 84.6292 112.381 92.7213 104.906 92.7213H62.8578C55.3827 92.7213 50.7107 84.6292 54.4483 78.1555L75.4722 41.741C79.2098 35.2673 88.5537 35.2673 92.2913 41.741ZM89.4881 43.3594C86.9964 39.0436 80.7671 39.0436 78.2754 43.3594L57.2515 79.7739C54.7597 84.0897 57.8744 89.4844 62.8578 89.4844H104.906C109.889 89.4844 113.004 84.0897 110.512 79.7739L89.4881 43.3594Z" fill="black"/>
<path d="M86.4001 73.0297C86.3376 74.4759 85.147 75.6162 83.6995 75.6162C82.252 75.6162 81.0614 74.4759 80.9989 73.0297L80.4421 60.1463C80.362 58.2921 81.8436 56.7451 83.6995 56.7451C85.5554 56.7451 87.037 58.2921 86.9569 60.1463L86.4001 73.0297ZM80.1055 81.4956C80.1055 80.5599 80.4405 79.795 81.1107 79.2007C81.7934 78.5938 82.6406 78.2903 83.6521 78.2903C84.6636 78.2903 85.5044 78.5938 86.1745 79.2007C86.8573 79.795 87.1987 80.5599 87.1987 81.4956C87.1987 82.4312 86.8573 83.2025 86.1745 83.8094C85.5044 84.4037 84.6636 84.7008 83.6521 84.7008C82.6406 84.7008 81.7934 84.4037 81.1107 83.8094C80.4405 83.2025 80.1055 82.4312 80.1055 81.4956Z" fill="black"/>
<path d="M73.044 120.365V121.661H70.116V120.365H73.044ZM78.588 121.661H75.492V120.365H78.588V121.661ZM75.492 124.997V123.653H78.588V124.997H75.492ZM70.116 124.997V123.653H73.044V124.997H70.116ZM70.116 127.061H73.044V130.565H75.492V127.061H78.588V128.237C78.588 128.501 78.516 128.597 78.228 128.597C77.964 128.597 77.148 128.597 76.38 128.573C76.668 129.149 76.98 130.037 77.052 130.685C78.468 130.685 79.5 130.661 80.196 130.325C80.94 129.941 81.132 129.389 81.132 128.261V118.301H78.3C77.892 118.061 77.388 117.821 76.86 117.557C78.42 116.597 79.932 115.445 81.132 114.293L79.452 112.949L78.876 113.093H67.86V115.205H76.452C75.828 115.661 75.156 116.117 74.484 116.501C73.5 116.093 72.492 115.709 71.628 115.397L69.804 116.909C70.812 117.293 71.916 117.797 73.02 118.301H67.596V130.637H70.116V127.061ZM65.964 115.877C65.244 114.917 63.924 113.429 62.772 112.277L60.66 113.597C61.74 114.773 63.132 116.453 63.804 117.461L65.964 115.877ZM65.46 123.605L65.004 123.677H63.252C64.524 122.069 66.06 119.861 66.948 118.541L65.22 117.749L64.932 117.869H60.06V120.149H63.156C62.244 121.421 61.284 122.741 60.828 123.173C60.372 123.653 59.964 123.845 59.58 123.941C59.82 124.445 60.348 125.669 60.492 126.245C60.708 126.053 61.404 125.885 61.956 125.885H63.996C63.204 129.149 61.644 131.501 59.436 132.821C59.988 133.181 60.924 134.189 61.284 134.741C62.436 133.949 63.492 132.893 64.332 131.501C66.18 133.853 68.916 134.309 73.26 134.309C76.068 134.309 79.092 134.261 81.564 134.093C81.708 133.325 82.092 132.029 82.5 131.453C79.788 131.717 75.876 131.861 73.308 131.861C69.516 131.837 66.9 131.549 65.436 129.317C66.06 127.829 66.516 126.101 66.804 124.109L65.46 123.605ZM92.436 123.629L93.516 123.269C93.396 122.621 92.988 121.661 92.58 120.845H96.252C95.964 121.709 95.532 122.741 95.1 123.629H92.436ZM95.772 116.789H99.06V114.437H95.772V112.373H93.132V114.437H89.652V116.789H93.132V118.445H89.004V120.845H91.764L90.42 121.253C90.732 121.997 91.092 122.909 91.26 123.629H89.556V126.029H93.132V127.949H88.98V130.325H93.132V134.621H95.772V130.325H99.612V127.949H95.772V126.029H99.132V123.629H97.476C97.86 122.861 98.292 122.045 98.7 121.205L97.26 120.845H99.612V118.445H95.772V116.789ZM102.852 124.877C103.452 126.677 104.172 128.357 105.084 129.821C104.436 130.733 103.716 131.549 102.852 132.245V124.877ZM107.748 123.797C107.436 125.045 107.028 126.269 106.5 127.373C105.828 126.269 105.276 125.045 104.844 123.797H107.748ZM109.02 121.421L108.564 121.541H102.852V115.805H107.532V117.773C107.532 118.037 107.412 118.109 107.052 118.133C106.692 118.133 105.372 118.133 104.196 118.085C104.532 118.781 104.892 119.765 105.012 120.533C106.764 120.533 108.06 120.509 108.972 120.125C109.908 119.741 110.172 119.045 110.172 117.821V113.309H100.26V134.669H102.852V133.469C103.284 133.901 103.716 134.357 103.98 134.765C105.012 133.997 105.924 133.109 106.716 132.053C107.604 133.061 108.588 133.901 109.668 134.549C110.1 133.853 110.94 132.821 111.54 132.293C110.316 131.669 109.212 130.805 108.252 129.725C109.452 127.493 110.292 124.877 110.748 122.045L109.02 121.421Z" fill="black"/>
</g>
<defs>
<filter id="filter0_d" x="0" y="0" width="171" height="171" filterUnits="userSpaceOnUse" color-interpolation-filters="sRGB">
<feFlood flood-opacity="0" result="BackgroundImageFix"/>
<feColorMatrix in="SourceAlpha" type="matrix" values="0 0 0 0 0 0 0 0 0 0 0 0 0 0 0 0 0 0 127 0" result="hardAlpha"/>
<feOffset/>
<feGaussianBlur stdDeviation="12"/>
<feColorMatrix type="matrix" values="0 0 0 0 0.552965 0 0 0 0 0.598911 0 0 0 0 0.633606 0 0 0 0.22 0"/>
<feBlend mode="normal" in2="BackgroundImageFix" result="effect1_dropShadow"/>
<feBlend mode="normal" in="SourceGraphic" in2="effect1_dropShadow" result="shape"/>
</filter>
<filter id="filter1_d" x="21" y="23" width="129" height="129" filterUnits="userSpaceOnUse" color-interpolation-filters="sRGB">
<feFlood flood-opacity="0" result="BackgroundImageFix"/>
<feColorMatrix in="SourceAlpha" type="matrix" values="0 0 0 0 0 0 0 0 0 0 0 0 0 0 0 0 0 0 127 0" result="hardAlpha"/>
<feOffset dy="2"/>
<feGaussianBlur stdDeviation="1.5"/>
<feColorMatrix type="matrix" values="0 0 0 0 0.325226 0 0 0 0 0.479651 0 0 0 0 0.545833 0 0 0 0.13 0"/>
<feBlend mode="normal" in2="BackgroundImageFix" result="effect1_dropShadow"/>
<feBlend mode="normal" in="SourceGraphic" in2="effect1_dropShadow" result="shape"/>
</filter>
</defs>
</svg>
