<svg width="167" height="171" viewBox="0 0 167 171" fill="none" xmlns="http://www.w3.org/2000/svg">
<g filter="url(#filter0_d)">
<g filter="url(#filter1_d)">
<rect x="20" y="24" width="123" height="123" rx="10" fill="#EEBC71"/>
</g>
<path fill-rule="evenodd" clip-rule="evenodd" d="M88.2913 41.741L109.315 78.1555C113.053 84.6292 108.381 92.7213 100.906 92.7213H58.8578C51.3827 92.7213 46.7107 84.6292 50.4483 78.1555L71.4722 41.741C75.2098 35.2673 84.5537 35.2673 88.2913 41.741ZM85.4881 43.3594C82.9964 39.0436 76.7671 39.0436 74.2754 43.3594L53.2515 79.7739C50.7597 84.0897 53.8744 89.4844 58.8578 89.4844H100.906C105.889 89.4844 109.004 84.0897 106.512 79.7739L85.4881 43.3594Z" fill="black"/>
<path d="M82.4001 73.0297C82.3376 74.4759 81.147 75.6162 79.6995 75.6162C78.252 75.6162 77.0614 74.4759 76.9989 73.0297L76.4421 60.1463C76.362 58.2921 77.8436 56.7451 79.6995 56.7451C81.5554 56.7451 83.037 58.2921 82.9569 60.1463L82.4001 73.0297ZM76.1055 81.4956C76.1055 80.5599 76.4405 79.795 77.1107 79.2007C77.7934 78.5938 78.6406 78.2903 79.6521 78.2903C80.6636 78.2903 81.5044 78.5938 82.1745 79.2007C82.8573 79.795 83.1987 80.5599 83.1987 81.4956C83.1987 82.4312 82.8573 83.2025 82.1745 83.8094C81.5044 84.4037 80.6636 84.7008 79.6521 84.7008C78.6406 84.7008 77.7934 84.4037 77.1107 83.8094C76.4405 83.2025 76.1055 82.4312 76.1055 81.4956Z" fill="black"/>
<path d="M69.044 120.365V121.661H66.116V120.365H69.044ZM74.588 121.661H71.492V120.365H74.588V121.661ZM71.492 124.997V123.653H74.588V124.997H71.492ZM66.116 124.997V123.653H69.044V124.997H66.116ZM66.116 127.061H69.044V130.565H71.492V127.061H74.588V128.237C74.588 128.501 74.516 128.597 74.228 128.597C73.964 128.597 73.148 128.597 72.38 128.573C72.668 129.149 72.98 130.037 73.052 130.685C74.468 130.685 75.5 130.661 76.196 130.325C76.94 129.941 77.132 129.389 77.132 128.261V118.301H74.3C73.892 118.061 73.388 117.821 72.86 117.557C74.42 116.597 75.932 115.445 77.132 114.293L75.452 112.949L74.876 113.093H63.86V115.205H72.452C71.828 115.661 71.156 116.117 70.484 116.501C69.5 116.093 68.492 115.709 67.628 115.397L65.804 116.909C66.812 117.293 67.916 117.797 69.02 118.301H63.596V130.637H66.116V127.061ZM61.964 115.877C61.244 114.917 59.924 113.429 58.772 112.277L56.66 113.597C57.74 114.773 59.132 116.453 59.804 117.461L61.964 115.877ZM61.46 123.605L61.004 123.677H59.252C60.524 122.069 62.06 119.861 62.948 118.541L61.22 117.749L60.932 117.869H56.06V120.149H59.156C58.244 121.421 57.284 122.741 56.828 123.173C56.372 123.653 55.964 123.845 55.58 123.941C55.82 124.445 56.348 125.669 56.492 126.245C56.708 126.053 57.404 125.885 57.956 125.885H59.996C59.204 129.149 57.644 131.501 55.436 132.821C55.988 133.181 56.924 134.189 57.284 134.741C58.436 133.949 59.492 132.893 60.332 131.501C62.18 133.853 64.916 134.309 69.26 134.309C72.068 134.309 75.092 134.261 77.564 134.093C77.708 133.325 78.092 132.029 78.5 131.453C75.788 131.717 71.876 131.861 69.308 131.861C65.516 131.837 62.9 131.549 61.436 129.317C62.06 127.829 62.516 126.101 62.804 124.109L61.46 123.605ZM88.436 123.629L89.516 123.269C89.396 122.621 88.988 121.661 88.58 120.845H92.252C91.964 121.709 91.532 122.741 91.1 123.629H88.436ZM91.772 116.789H95.06V114.437H91.772V112.373H89.132V114.437H85.652V116.789H89.132V118.445H85.004V120.845H87.764L86.42 121.253C86.732 121.997 87.092 122.909 87.26 123.629H85.556V126.029H89.132V127.949H84.98V130.325H89.132V134.621H91.772V130.325H95.612V127.949H91.772V126.029H95.132V123.629H93.476C93.86 122.861 94.292 122.045 94.7 121.205L93.26 120.845H95.612V118.445H91.772V116.789ZM98.852 124.877C99.452 126.677 100.172 128.357 101.084 129.821C100.436 130.733 99.716 131.549 98.852 132.245V124.877ZM103.748 123.797C103.436 125.045 103.028 126.269 102.5 127.373C101.828 126.269 101.276 125.045 100.844 123.797H103.748ZM105.02 121.421L104.564 121.541H98.852V115.805H103.532V117.773C103.532 118.037 103.412 118.109 103.052 118.133C102.692 118.133 101.372 118.133 100.196 118.085C100.532 118.781 100.892 119.765 101.012 120.533C102.764 120.533 104.06 120.509 104.972 120.125C105.908 119.741 106.172 119.045 106.172 117.821V113.309H96.26V134.669H98.852V133.469C99.284 133.901 99.716 134.357 99.98 134.765C101.012 133.997 101.924 133.109 102.716 132.053C103.604 133.061 104.588 133.901 105.668 134.549C106.1 133.853 106.94 132.821 107.54 132.293C106.316 131.669 105.212 130.805 104.252 129.725C105.452 127.493 106.292 124.877 106.748 122.045L105.02 121.421Z" fill="black"/>
</g>
<defs>
<filter id="filter0_d" x="-4" y="0" width="171" height="171" filterUnits="userSpaceOnUse" color-interpolation-filters="sRGB">
<feFlood flood-opacity="0" result="BackgroundImageFix"/>
<feColorMatrix in="SourceAlpha" type="matrix" values="0 0 0 0 0 0 0 0 0 0 0 0 0 0 0 0 0 0 127 0" result="hardAlpha"/>
<feOffset/>
<feGaussianBlur stdDeviation="12"/>
<feColorMatrix type="matrix" values="0 0 0 0 0.552965 0 0 0 0 0.598911 0 0 0 0 0.633606 0 0 0 0.22 0"/>
<feBlend mode="normal" in2="BackgroundImageFix" result="effect1_dropShadow"/>
<feBlend mode="normal" in="SourceGraphic" in2="effect1_dropShadow" result="shape"/>
</filter>
<filter id="filter1_d" x="17" y="23" width="129" height="129" filterUnits="userSpaceOnUse" color-interpolation-filters="sRGB">
<feFlood flood-opacity="0" result="BackgroundImageFix"/>
<feColorMatrix in="SourceAlpha" type="matrix" values="0 0 0 0 0 0 0 0 0 0 0 0 0 0 0 0 0 0 127 0" result="hardAlpha"/>
<feOffset dy="2"/>
<feGaussianBlur stdDeviation="1.5"/>
<feColorMatrix type="matrix" values="0 0 0 0 0.325226 0 0 0 0 0.479651 0 0 0 0 0.545833 0 0 0 0.13 0"/>
<feBlend mode="normal" in2="BackgroundImageFix" result="effect1_dropShadow"/>
<feBlend mode="normal" in="SourceGraphic" in2="effect1_dropShadow" result="shape"/>
</filter>
</defs>
</svg>
