<svg width="56" height="56" viewBox="0 0 56 56" fill="none" xmlns="http://www.w3.org/2000/svg">
<rect width="56" height="56" fill="white"/>
<rect x="5" y="5" width="45" height="45" rx="8" fill="#C2D9EA"/>
<path d="M37.5303 18.4697C37.2374 18.1768 36.7626 18.1768 36.4697 18.4697L18.4697 36.4697C18.1768 36.7626 18.1768 37.2374 18.4697 37.5303C18.7626 37.8232 19.2374 37.8232 19.5303 37.5303L37.5303 19.5303C37.8232 19.2374 37.8232 18.7626 37.5303 18.4697Z" stroke="#344059" stroke-width="1.5" stroke-linejoin="round"/>
<path d="M19.5303 18.4697C19.2374 18.1768 18.7626 18.1768 18.4697 18.4697C18.1768 18.7626 18.1768 19.2374 18.4697 19.5303L36.4697 37.5303C36.7626 37.8232 37.2374 37.8232 37.5303 37.5303C37.8232 37.2374 37.8232 36.7626 37.5303 36.4697L19.5303 18.4697Z" stroke="#344059" stroke-width="1.5" stroke-linejoin="round"/>
</svg>
